<svg xmlns="http://www.w3.org/2000/svg" width="256" height="256" viewBox="0 0 100 100"><rect width="100" height="100" rx="50" fill="#044054"></rect><path d="M23.47 83.50Q18.50 83.50 15.80 80.80Q13.11 78.10 13.11 73.63L13.11 73.63Q13.11 69.84 15.42 67.05Q17.73 64.24 21.65 64.24L21.65 64.24Q24.66 64.24 26.59 65.12Q28.51 65.99 28.51 68.94L28.51 68.94Q28.51 70.19 28.09 71.73L28.09 71.73Q26.83 70.69 25.92 70.30Q25.01 69.91 23.89 69.91L23.89 69.91Q21.58 69.91 20.29 71.45Q18.99 72.99 18.99 75.09L18.99 75.09Q18.99 77.55 20.46 78.77Q21.93 79.99 23.75 79.99L23.75 79.99Q25.43 79.99 26.59 79.33Q27.74 78.66 28.65 76.81Q29.56 74.95 30.40 71.38L30.40 71.38L41.39 21.40Q36.70 23.29 34.11 27.21Q31.52 31.13 31.52 36.73L31.52 36.73Q31.52 39.32 32.01 40.34Q32.50 41.35 32.50 41.49L32.50 41.49Q28.72 41.49 26.87 39.92Q25.01 38.34 25.01 34.70L25.01 34.70Q25.01 30.22 28.69 25.99Q32.36 21.75 38.10 19.13Q43.84 16.50 49.58 16.50L49.58 16.50L52.38 16.50L41.88 66.20Q40.06 74.81 35.86 79.16Q31.66 83.50 23.47 83.50L23.47 83.50ZM66.10 70.13Q58.19 70.13 54.48 66.13Q50.77 62.14 50.77 52.90L50.77 52.90Q50.77 45.55 53.26 37.08Q55.74 28.61 61.24 22.56Q66.73 16.50 75.20 16.50L75.20 16.50Q80.45 16.50 83.67 18.81Q86.89 21.12 86.89 25.88L86.89 25.88Q86.89 28.89 85.70 30.61Q84.51 32.32 81.99 32.32L81.99 32.32Q79.47 32.32 78 30.50L78 30.50Q79.26 29.87 80.24 27.98Q81.22 26.09 81.22 24.06L81.22 24.06Q81.22 22.17 80.21 20.98Q79.19 19.79 76.95 19.79L76.95 19.79Q73.24 19.79 69.88 24.87Q66.52 29.94 64.46 37.64Q62.39 45.34 62.39 52.48L62.39 52.48Q62.39 57.80 64.21 60.60Q66.03 63.40 70.79 63.40L70.79 63.40Q74.92 63.40 78.42 61.58Q81.92 59.76 84.44 56.40L84.44 56.40L86.05 57.10Q84.30 61.51 80.87 64.45Q77.44 67.39 73.52 68.76Q69.60 70.13 66.10 70.13L66.10 70.13Z" fill="#e3f5fb"></path></svg>