<svg xmlns="http://www.w3.org/2000/svg" width="256" height="256" viewBox="0 0 100 100"><rect width="100" height="100" rx="0" fill="#1f2e42"></rect><path d="M26.66 74.21Q23.90 74.21 21.77 73.16Q19.64 72.11 18.26 70.43L18.26 70.43L17.18 73.67L9.32 73.67L9.32 54.77L17.78 54.77Q17.78 59.03 18.56 61.01Q19.34 62.99 21.74 62.99L21.74 62.99Q23.78 62.99 25.01 61.07Q26.24 59.15 26.24 56.57L26.24 56.57L26.24 37.01L20.60 37.01L20.60 26.63L45.92 26.63L45.92 37.01L41.24 37.01L41.24 59.39Q41.24 66.17 37.34 70.19Q33.44 74.21 26.66 74.21L26.66 74.21ZM73.04 74.15Q66.56 74.15 61.19 71.42Q55.82 68.69 52.61 63.20Q49.40 57.71 49.40 49.73L49.40 49.73Q49.40 43.01 51.83 37.58Q54.26 32.15 58.97 28.97Q63.68 25.79 70.34 25.79L70.34 25.79Q73.76 25.79 76.46 27.38Q79.16 28.97 80.36 31.43L80.36 31.43L81.56 26.69L90.68 26.69L90.68 45.83L81.32 45.83L81.32 44.87Q81.32 41.15 79.61 38.78Q77.90 36.41 74.54 36.41L74.54 36.41Q72.26 36.41 70.37 38.15Q68.48 39.89 67.40 42.71Q66.32 45.53 66.32 48.53L66.32 48.53Q66.32 54.41 69.26 57.74Q72.20 61.07 77.30 61.07L77.30 61.07Q80.90 61.07 83.99 59.87Q87.08 58.67 89.06 57.29L89.06 57.29L89.72 57.83L89.72 70.31Q86 72.47 81.86 73.31Q77.72 74.15 73.04 74.15L73.04 74.15Z" fill="#fffce9"></path></svg>