<svg xmlns="http://www.w3.org/2000/svg" width="256" height="256" viewBox="0 0 100 100"><rect width="100" height="100" fill="#1f2e42" rx="0"/><path fill="#fffce9" d="M26.66 74.21q-2.76 0-4.89-1.05t-3.51-2.73l-1.08 3.24H9.32v-18.9h8.46q0 4.26.78 6.24.78 1.98 3.18 1.98 2.04 0 3.27-1.92t1.23-4.5V37.01H20.6V26.63h25.32v10.38h-4.68v22.38q0 6.78-3.9 10.8-3.9 4.02-10.68 4.02Zm46.38-.06q-6.48 0-11.85-2.73-5.37-2.73-8.58-8.22T49.4 49.73q0-6.72 2.43-12.15 2.43-5.43 7.14-8.61 4.71-3.18 11.37-3.18 3.42 0 6.12 1.59t3.9 4.05l1.2-4.74h9.12v19.14h-9.36v-.96q0-3.72-1.71-6.09-1.71-2.37-5.07-2.37-2.28 0-4.17 1.74-1.89 1.74-2.97 4.56-1.08 2.82-1.08 5.82 0 5.88 2.94 9.21 2.94 3.33 8.04 3.33 3.6 0 6.69-1.2 3.09-1.2 5.07-2.58l.66.54v12.48q-3.72 2.16-7.86 3-4.14.84-8.82.84Z"/></svg>